<?xml version="1.0" standalone="no"?>
<!DOCTYPE svg PUBLIC "-//W3C//DTD SVG 20010904//EN"
 "http://www.w3.org/TR/2001/REC-SVG-20010904/DTD/svg10.dtd">
<svg version="1.0" xmlns="http://www.w3.org/2000/svg"
 width="256.000000pt" height="256.000000pt" viewBox="0 0 256.000000 256.000000"
 preserveAspectRatio="xMidYMid meet">
<metadata>
Created by potrace 1.14, written by Peter Selinger 2001-2017
</metadata>
<g transform="translate(0.000000,256.000000) scale(0.100000,-0.100000)"
fill="#000000" stroke="none">
<path d="M2108 2451 c-17 -6 -49 -52 -244 -341 -130 -193 -190 -287 -272 -430
-31 -52 -57 -97 -59 -99 -2 -3 -18 10 -36 27 -18 18 -24 30 -15 27 20 -8 38
20 36 56 -1 24 -33 73 -73 115 -91 96 -131 141 -195 224 -108 140 -138 169
-214 206 -77 38 -96 41 -96 18 0 -13 -5 -12 -26 5 -15 12 -33 21 -40 21 -23 0
-16 -36 11 -56 14 -10 34 -32 45 -49 11 -16 39 -58 62 -91 24 -34 88 -128 143
-209 77 -113 119 -165 180 -219 44 -39 94 -84 111 -99 17 -15 39 -33 48 -40
16 -12 15 -17 -18 -76 -20 -35 -36 -67 -36 -71 0 -5 -3 -10 -7 -12 -18 -8 -73
-80 -68 -89 4 -5 2 -9 -3 -9 -4 0 -19 -19 -32 -42 -13 -24 -60 -92 -104 -152
-82 -112 -109 -169 -57 -124 22 20 23 20 8 2 -9 -11 -17 -25 -17 -31 0 -5 -10
-18 -22 -29 -12 -10 -18 -13 -14 -6 11 19 -9 14 -27 -6 -21 -23 -22 -39 -2
-22 10 9 15 9 15 1 0 -6 -4 -12 -10 -12 -5 -1 -15 -2 -21 -3 -6 0 -16 -9 -23
-19 -54 -73 -244 -267 -262 -267 -7 0 -15 -11 -18 -24 -9 -35 -87 -66 -209
-81 -18 -2 -65 -11 -105 -20 -40 -8 -75 -15 -77 -15 -3 0 -13 -18 -24 -39 -18
-39 -18 -40 1 -72 24 -39 30 -79 15 -97 -15 -19 2 -32 47 -35 22 -2 44 -11 51
-21 11 -14 23 -16 68 -12 56 6 83 15 190 68 90 43 127 35 97 -23 -12 -22 8
-27 28 -7 7 7 12 8 12 2 0 -6 -11 -21 -25 -34 -14 -13 -23 -26 -20 -28 3 -3
18 9 34 27 17 19 35 30 41 26 12 -7 50 21 50 37 0 8 126 188 139 198 21 16
120 142 126 160 3 11 12 20 18 20 7 0 6 4 -3 10 -10 6 -11 10 -2 10 6 0 12 4
12 10 0 10 177 306 340 570 46 74 119 196 163 270 44 74 118 193 166 263 47
70 103 156 125 190 90 146 126 207 126 216 0 6 12 27 26 48 78 115 89 181 36
236 -33 35 -73 55 -94 48z"/>
</g>
</svg>
